<svg width="1193" height="396" viewBox="0 0 1193 396" fill="none" xmlns="http://www.w3.org/2000/svg">
<rect width="1193" height="396" fill="white"/>
<path d="M351.529 141C361.009 141 369.289 142.74 376.369 146.22C383.449 149.7 388.849 154.56 392.569 160.8C396.409 166.92 398.329 173.94 398.329 181.86C398.329 190.62 396.229 198.06 392.029 204.18C387.829 210.18 382.309 214.74 375.469 217.86C368.629 220.86 361.309 222.36 353.509 222.36H322.189V270.6C322.189 271.2 322.669 271.68 323.629 272.04C324.589 272.4 325.489 272.58 326.329 272.58V276H294.109V272.58C294.949 272.58 295.849 272.4 296.809 272.04C297.769 271.68 298.249 271.2 298.249 270.6V146.4C298.249 145.8 297.769 145.32 296.809 144.96C295.969 144.6 295.129 144.42 294.289 144.42V141H351.529ZM354.949 199.5C359.149 199.5 362.869 198.6 366.109 196.8C369.349 194.88 371.809 192.48 373.489 189.6C375.169 186.72 376.009 183.72 376.009 180.6C376.009 175.92 374.029 171.78 370.069 168.18C366.109 164.58 361.129 162.78 355.129 162.78H322.189V199.5H354.949ZM511.18 196.62C510.34 196.62 509.44 196.8 508.48 197.16C507.64 197.52 507.22 198 507.22 198.6V270.6C507.22 271.2 507.64 271.68 508.48 272.04C509.44 272.4 510.34 272.58 511.18 272.58V276H484.54V266.1C476.98 274.26 467.44 278.34 455.92 278.34C447.16 278.34 439.42 276.6 432.7 273.12C426.1 269.52 420.94 264.42 417.22 257.82C413.62 251.22 411.82 243.54 411.82 234.78C411.82 226.26 413.8 218.7 417.76 212.1C421.84 205.38 427.24 200.22 433.96 196.62C440.68 192.9 448 191.04 455.92 191.04C467.44 191.04 476.98 195.48 484.54 204.36V193.2H511.18V196.62ZM458.62 259.26C463.54 259.26 467.92 258.18 471.76 256.02C475.72 253.74 478.78 250.8 480.94 247.2C483.1 243.48 484.18 239.52 484.18 235.32C484.18 228.12 481.78 222.18 476.98 217.5C472.3 212.82 466.18 210.48 458.62 210.48C451.3 210.48 445.24 212.76 440.44 217.32C435.76 221.88 433.42 227.7 433.42 234.78C433.42 242.22 435.82 248.16 440.62 252.6C445.54 257.04 451.54 259.26 458.62 259.26ZM583.146 187.8V216.78H579.726C579.726 215.94 579.546 214.98 579.186 213.9C578.826 212.82 578.346 212.22 577.746 212.1H576.486C572.766 212.1 568.986 213.18 565.146 215.34C561.426 217.38 558.306 220.14 555.786 223.62C553.386 226.98 552.186 230.58 552.186 234.42V270.6C552.186 271.2 552.606 271.68 553.446 272.04C554.406 272.4 555.306 272.58 556.146 272.58V276H525.906V272.58C526.746 272.58 527.586 272.4 528.426 272.04C529.386 271.68 529.866 271.2 529.866 270.6V198.6C529.866 198 529.386 197.52 528.426 197.16C527.586 196.8 526.746 196.62 525.906 196.62V193.2H552.186V200.94C555.426 197.94 559.326 195.54 563.886 193.74C568.446 191.94 573.006 191.04 577.566 191.04H577.746H577.926C578.526 191.04 578.946 190.68 579.186 189.96C579.546 189.24 579.726 188.52 579.726 187.8H583.146ZM674.971 271.68C675.451 272.28 676.891 272.58 679.291 272.58V276H646.351V272.58C647.791 272.58 648.511 272.28 648.511 271.68C648.511 271.44 648.271 270.96 647.791 270.24L630.691 246.66L620.971 258V270.6C620.971 271.2 621.391 271.68 622.231 272.04C623.191 272.4 624.091 272.58 624.931 272.58V276H594.151V272.58C594.991 272.58 595.831 272.4 596.671 272.04C597.631 271.68 598.111 271.2 598.111 270.6V146.4C598.111 145.8 597.631 145.32 596.671 144.96C595.831 144.6 594.991 144.42 594.151 144.42V141H624.931V144.42C624.091 144.42 623.191 144.6 622.231 144.96C621.391 145.32 620.971 145.8 620.971 146.4V225.96L644.731 198.6L645.091 197.88C645.091 197.04 644.011 196.62 641.851 196.62V193.2H677.851V196.62H676.231C674.671 196.62 673.651 196.86 673.171 197.34L644.191 231L674.971 271.68Z" fill="black"/>
<path d="M848.665 270.6C848.665 271.2 849.085 271.68 849.925 272.04C850.885 272.4 851.845 272.58 852.805 272.58V276H821.305V272.58C822.265 272.58 823.165 272.4 824.005 272.04C824.965 271.68 825.445 271.2 825.445 270.6V167.46L772.705 282.84L720.145 167.1V270.6C720.145 271.2 720.565 271.68 721.405 272.04C722.365 272.4 723.325 272.58 724.285 272.58V276H692.605V272.58C693.565 272.58 694.465 272.4 695.305 272.04C696.265 271.68 696.745 271.2 696.745 270.6V146.4C696.745 145.8 696.265 145.32 695.305 144.96C694.465 144.6 693.625 144.42 692.785 144.42V141H739.225V144.42C737.785 144.42 736.825 144.78 736.345 145.5C735.985 146.1 735.985 146.82 736.345 147.66L772.885 232.62L809.965 147.66C810.205 146.94 809.845 146.22 808.885 145.5C807.925 144.78 806.725 144.42 805.285 144.42V141H852.625V144.42C851.785 144.42 850.885 144.6 849.925 144.96C849.085 145.32 848.665 145.8 848.665 146.4V270.6ZM967.508 196.62C966.668 196.62 965.768 196.8 964.808 197.16C963.968 197.52 963.548 198 963.548 198.6V270.6C963.548 271.2 963.968 271.68 964.808 272.04C965.768 272.4 966.668 272.58 967.508 272.58V276H940.868V266.1C933.308 274.26 923.768 278.34 912.248 278.34C903.488 278.34 895.748 276.6 889.028 273.12C882.428 269.52 877.268 264.42 873.548 257.82C869.948 251.22 868.148 243.54 868.148 234.78C868.148 226.26 870.128 218.7 874.088 212.1C878.168 205.38 883.568 200.22 890.288 196.62C897.008 192.9 904.328 191.04 912.248 191.04C923.768 191.04 933.308 195.48 940.868 204.36V193.2H967.508V196.62ZM914.948 259.26C919.868 259.26 924.248 258.18 928.088 256.02C932.048 253.74 935.108 250.8 937.268 247.2C939.428 243.48 940.508 239.52 940.508 235.32C940.508 228.12 938.108 222.18 933.308 217.5C928.628 212.82 922.508 210.48 914.948 210.48C907.628 210.48 901.568 212.76 896.768 217.32C892.088 221.88 889.748 227.7 889.748 234.78C889.748 242.22 892.148 248.16 896.948 252.6C901.868 257.04 907.868 259.26 914.948 259.26ZM1032.27 189.6V216.96H1028.85C1028.85 216.12 1028.67 215.34 1028.31 214.62C1027.95 213.78 1027.47 213.36 1026.87 213.36H1015.17V270.6C1015.17 271.2 1015.59 271.68 1016.43 272.04C1017.27 272.4 1018.11 272.58 1018.95 272.58V276H989.614V272.58C990.454 272.58 991.294 272.4 992.134 272.04C992.974 271.68 993.394 271.2 993.394 270.6V213.36H984.754C984.154 213.36 983.674 213.78 983.314 214.62C982.954 215.34 982.774 216.12 982.774 216.96H979.354V189.6H982.774C982.774 190.44 982.954 191.28 983.314 192.12C983.674 192.84 984.154 193.2 984.754 193.2H993.394V172.14C993.394 171.54 992.974 171.06 992.134 170.7C991.294 170.34 990.454 170.16 989.614 170.16V166.74H1018.95V170.16C1018.11 170.16 1017.27 170.34 1016.43 170.7C1015.59 171.06 1015.17 171.54 1015.17 172.14V193.2H1026.87C1027.47 193.2 1027.95 192.84 1028.31 192.12C1028.67 191.28 1028.85 190.44 1028.85 189.6H1032.27ZM1086.09 189.42C1095.33 189.42 1103.31 191.46 1110.03 195.54C1116.75 199.5 1121.85 204.9 1125.33 211.74C1128.81 218.58 1130.55 226.14 1130.55 234.42C1130.55 236.94 1130.37 239.46 1130.01 241.98H1064.13C1064.61 247.74 1067.13 252.24 1071.69 255.48C1076.25 258.72 1081.71 260.34 1088.07 260.34C1092.39 260.34 1095.99 259.74 1098.87 258.54C1101.87 257.34 1104.51 255.54 1106.79 253.14C1107.03 252.66 1107.15 252.36 1107.15 252.24C1107.15 251.76 1106.97 251.28 1106.61 250.8C1106.25 250.2 1105.89 249.78 1105.53 249.54L1107.69 246.84L1127.67 262.5L1125.69 265.2C1123.89 264.12 1122.63 264 1121.91 264.84C1113.51 274.92 1102.23 279.96 1088.07 279.96C1078.95 279.96 1070.91 277.98 1063.95 274.02C1056.99 269.94 1051.59 264.54 1047.75 257.82C1044.03 250.98 1042.17 243.42 1042.17 235.14C1042.17 226.38 1044.03 218.52 1047.75 211.56C1051.47 204.6 1056.63 199.2 1063.23 195.36C1069.95 191.4 1077.57 189.42 1086.09 189.42ZM1108.95 225.24C1108.47 220.32 1105.95 216.18 1101.39 212.82C1096.95 209.34 1091.91 207.6 1086.27 207.6C1080.63 207.6 1075.77 209.34 1071.69 212.82C1067.61 216.18 1065.15 220.32 1064.31 225.24H1108.95Z" fill="#FEC33A"/>
<rect x="35" y="279" width="200" height="19" rx="5" fill="#FEC33A"/>
<circle cx="80" cy="237" r="14" fill="#FEC33A"/>
<ellipse cx="191" cy="237" rx="15" ry="14" fill="#FEC33A"/>
<path d="M91.4655 128.049L50.1531 143.097L50.0333 152.237C49.9535 159.462 50.0333 161.298 50.4325 161.138C50.7119 161.059 69.8712 154.073 93.0222 145.651L135.093 130.364L177.244 144.414C200.434 152.157 219.514 158.464 219.714 158.464C219.873 158.464 219.993 154.473 219.993 149.563V140.702L178.361 126.811C145.072 115.715 136.37 112.961 134.774 113C133.177 113 124.396 116.074 91.4655 128.049Z" fill="black"/>
<path d="M91.6651 155.87C83.9614 157.306 77.2157 162.176 73.783 168.802C73.0246 170.239 69.6717 179.619 66.3587 189.598L60.3315 207.76L58.5353 208.717C55.9009 210.115 52.2287 214.226 51.0711 217.02C50.1531 219.295 50.1531 219.614 50.0333 235.421C49.9136 253.223 49.9934 254.141 52.4282 257.973C53.6257 259.809 57.2979 263.441 57.9765 263.441C58.1761 263.441 58.3357 266.315 58.3357 269.828C58.3357 276.813 58.655 278.21 60.6508 280.326C62.8861 282.681 64.0835 283 70.9889 283C77.9342 283 79.451 282.601 81.5665 280.366C83.4824 278.33 83.8816 276.693 83.8816 271.225V266.236H134.973H186.065V271.225C186.065 276.733 186.464 278.33 188.38 280.326C190.615 282.681 191.813 283 198.718 283C205.663 283 207.18 282.601 209.296 280.366C211.291 278.21 211.611 276.813 211.611 269.828C211.611 265.757 211.77 263.441 212.01 263.441C212.649 263.441 215.962 260.248 217.199 258.412C217.838 257.534 218.716 255.658 219.195 254.301C219.993 251.906 220.033 251.187 219.913 235.581C219.793 219.614 219.793 219.295 218.875 217.02C217.718 214.226 214.046 210.115 211.411 208.717L209.615 207.76L203.588 189.598C200.235 179.619 197.002 170.439 196.403 169.161C192.97 162.336 186.025 157.267 178.082 155.83C173.811 155.071 95.8163 155.071 91.6651 155.87ZM177.084 173.193C180.597 174.789 180.796 175.228 186.225 191.474L191.174 206.362H134.973H78.7724L83.7219 191.474C89.1504 175.228 89.35 174.789 92.8625 173.193C94.3793 172.474 96.5746 172.434 134.973 172.434C173.372 172.434 175.567 172.474 177.084 173.193ZM85.2387 224.883C87.6336 226.041 89.7491 228.156 91.1462 230.791C91.9046 232.228 92.0642 233.106 92.0642 236.299C92.0642 239.492 91.9046 240.37 91.1462 241.807C89.7491 244.442 87.6336 246.557 85.1589 247.755C82.0854 249.272 77.5749 249.311 74.4216 247.914C69.2326 245.599 65.9995 239.452 67.1171 234.024C67.7158 231.11 68.3545 229.873 70.4301 227.637C74.222 223.526 80.2093 222.408 85.2387 224.883ZM195.445 224.684C199.197 226.36 202.111 229.992 202.869 234.064C203.907 239.692 200.794 245.519 195.445 247.954C192.411 249.351 187.821 249.272 184.788 247.755C180.597 245.719 178.082 241.927 177.763 237.297C177.563 233.904 178.082 231.789 179.798 229.274C183.311 224.045 189.737 222.169 195.445 224.684Z" fill="black"/>
</svg>
